<svg xmlns="http://www.w3.org/2000/svg" width="512pt" height="512pt" viewBox="0 -14 512 512" id="world"><path fill="#c9f3ff" d="M419.344 57.621C390.266 43.355 357.574 35.332 323 35.332c-63.41 0-120.52 26.953-160.512 70.023 13.77 1.82 29.485 8.79 42.692 3.079 7.246-3.133 5.793-5.09 9.539-13.16 4.094-8.817 9.484-13.676 18.101-18.004 14.993-7.528 31.203-13.247 46.645-19.801 14.297-6.07 26.226-12.567 42.015-6.114 11.883 4.532-19.132 21.88-20.156 28.567-2.426 15.879 21.965 18.625 29.137 28.57 5.707 7.906 2.035 14.137-7.766 13.024-5.629-.641-11.105-5.825-16.593-7.352-11.989-3.336-25.422 9.07-27.883 21.672-1.676 8.59 3.246 20.445 12.922 20.644 9.648.2 8.156-8.386 12.648-13.496 9.055-10.289 24.211 4.528 28.285 13.547 6.555 14.496-7.324 25.426-15.988 35.11-8.047 8.996-16.781 22.82-28.66 26.847-7.27 2.465-16.817.5-14.875 11.48.691 3.907 4.812 7.505 7.136 10.454l21.754 27.59c-13.933-6.778-31.902-12.172-44.191-21.496-10.637-8.075-14.738-23.66-24.898-32.293-7.836-6.653-13.16-7.028-15.27-18.778-1.055-5.87.66-13.449-1.348-19.054-3.675-10.254-15.207-23.286-24.586-29.036-4.937-3.027-11.945-7.046-17.945-5.8-3.18.664-5.238 4.465-7.484 4.98-3.09.715-14.625 1.488-17.496 0-4.711-2.437-7.461-6.898-8.555-12.015-21.516 32.855-34.445 71.835-35.582 113.765 16.21-12.504 36.523-19.945 58.578-19.945 53.02 0 96 42.98 96 96 0 47.566-34.598 87.047-80 94.664a221.793 221.793 0 0 0 7.992 6.703c29.074 14.27 61.77 22.29 96.344 22.29 120.95 0 219-98.048 219-219 0-69.4-32.29-131.25-82.656-171.376zm-40.387 251.723c-3.59 12.773-11.23 23.996-20.52 32.8-12.085 11.458-24.917 30.16-33.386 44.657-3.426 5.87-5.332 11.89-6.473 18.199-1.144 6.34-10.066 6.86-11.851.676-2.79-9.645.554-21 2.195-32.106 1.758-11.875 10.43-37.074 4.836-48.414-1.75-3.547-7.61-7.09-10.16-10.36-3.043-3.901-7.692-11.69-8.477-16.651-.957-6.047 1.102-7.918 2.422-13.118.453-1.785 3.723-12.129 4.281-13.07 12.102-20.45 39.848-1.035 50.422 10.008 8.625 9.004 31.082 11.816 26.711 27.379zm41.324-199.028c-4.644 5.957-11.902 8.5-17.59 13.192-6.199 5.11-9.84 17.476-15.316 21.23-15.887 10.89-16.977-32.254-19.96-38.925-4.731-10.583-22.946-15.31-22.88-26.528.07-11.379 12.914-13.7 21.356-16.7 19.808-3.823 51.28-15.76 61.18 10.435 3.89 10.296-.044 28.636-6.79 37.296zm0 0"></path><path fill="#36d28f" d="M379.375 308.29c-4.238-2.224-8.383-4.462-11.129-7.325-10.574-11.043-38.316-30.453-50.422-10.008-.558.945-3.828 11.285-4.281 13.07-1.32 5.2-3.379 7.07-2.422 13.118.785 4.96 5.434 12.75 8.477 16.652 2.55 3.27-10.344 47.156-8.598 50.703 4.68 9.484 18.14-11.695 15.254 1.273 8.45-14.175 20.652-31.695 32.184-42.628 9.289-8.805 16.93-20.028 20.519-32.801.2-.715.324-1.395.418-2.055zm-94.613-90.802c11.875-4.027 20.61-17.851 28.66-26.843 7.496-8.383 18.89-17.7 17.574-29.45l-19.371-22.25c-3.754-1.023-7.469-.402-10.5 3.043-4.492 5.106-3.004 13.696-12.652 13.496-9.676-.199-14.594-12.054-12.918-20.648 2.457-12.598 15.894-25.004 27.883-21.668 5.488 1.523 10.964 6.71 16.593 7.348 5.551.632 9.13-1.094 10.157-4.149-5.149-3.449-8.93-7.656-8.27-14.047-9.605-6.207-24.484-10.441-23.348-22.53-14.968 6.28-30.593 11.874-45.082 19.151-8.617 4.329-14.008 9.184-18.101 18-3.75 8.075-2.293 10.028-9.54 13.16-14.554 6.294-32.152-2.808-46.831-3.453-10.192-.449-17.141 9.07-18.832 19.32 1.214-.132 2.23-.28 2.87-.429 2.247-.516 4.305-4.316 7.485-4.98 6-1.246 13.008 2.773 17.95 5.8 7.034 4.317 15.28 12.73 20.515 20.993.992.566 1.937 1.136 2.816 1.675 9.38 5.746 2.84 17.555 6.516 27.809 2.008 5.601 18.36 14.406 19.414 20.281 2.113 11.746 7.438 12.121 15.27 18.778 5.043 4.28 8.593 10.277 12.187 16.214 10.781 5.641 23.277 9.899 33.57 14.907-7.25-9.2-14.5-18.395-21.75-27.59-2.328-2.95-6.449-6.547-7.14-10.453-1.946-10.98 7.605-9.02 14.875-11.485zM375.39 84.086c-7.407 2.633-18.2 4.742-20.782 12.906 4.239 3.192 8.383 6.524 10.305 10.82.66 1.477 1.23 4.75 1.887 8.829 4.176 3.148 8.222 6.441 10.113 10.671 1.262 2.817 2.18 12.118 4.02 21.118 1.203-.172 2.511-.707 3.941-1.688 5.48-3.754 9.117-16.12 15.316-21.234 5.688-4.692 12.946-7.23 17.59-13.192 5.489-7.043 9.114-20.496 8.18-30.812-13.945-7.832-35.59-.313-50.57 2.582zm0 0"></path><path fill="#4dbaf6" d="M256 325.008c0-28.004-11.992-53.203-31.121-70.75-11.711-5.09-24.633-7.914-38.211-7.914-53.02 0-96 42.98-96 96 0 28.004 11.992 53.203 31.121 70.75 11.711 5.09 24.629 7.914 38.211 7.914 53.02 0 96-42.98 96-96zm0 0"></path><path fill="#fff" d="M104 325.008c0-30.926 25.07-56 56-56s56 25.074 56 56c0 30.93-25.07 56-56 56s-56-25.07-56-56zm0 0"></path><path fill="#ff5d5d" d="m50.973 467.973 59.476-59.48-18.273-18.274-59.813 59.812A23.918 23.918 0 0 0 25.336 467c0 2.262.32 4.52.953 6.707 8.379 2.836 18.004.941 24.684-5.734zm0 0"></path><path d="M444.926 67.074C401.676 23.82 344.168 0 283 0S164.324 23.82 121.074 67.074C77.82 110.324 54 167.832 54 229c0 19.453 2.45 38.762 7.27 57.426C56.578 298.39 54 311.402 54 325.008c0 16.844 3.953 32.777 10.977 46.933l-55.02 55.016C3.535 433.379 0 441.918 0 451c0 9.078 3.535 17.617 9.957 24.043 6.629 6.629 15.336 9.941 24.043 9.941s17.414-3.312 24.043-9.941l55.012-55.016c14.16 7.024 30.097 10.98 46.945 10.98 4.566 0 9.066-.288 13.484-.85C206.898 448.374 244.704 458 283 458c61.168 0 118.676-23.82 161.926-67.07C488.18 347.676 512 290.168 512 229s-23.82-118.676-67.074-161.926zm-35.031 39.094c-1.758 2.254-4.63 4.023-7.958 6.066-2.53 1.559-5.398 3.325-8.109 5.559-4.523 3.73-7.566 9.125-10.25 13.883-.723 1.281-1.644 2.914-2.492 4.277-1.945-5.504-3.492-15.172-4.172-19.406-1.047-6.543-1.648-10.086-2.871-12.817-3.148-7.039-9.207-11.574-14.55-15.574-2.5-1.87-7.15-5.351-7.458-6.808.012-1.973 2.52-3.38 10.73-6.02 1.122-.36 2.212-.71 3.25-1.066 2.739-.547 5.583-1.203 8.575-1.895 24.347-5.637 35.988-6.082 40.625 6.188 2.472 6.543-.363 21.254-5.32 27.613zM43.898 460.898c-5.457 5.461-14.34 5.461-19.796.004C21.457 458.254 20 454.738 20 451s1.457-7.254 4.102-9.898l51.734-51.735a106.885 106.885 0 0 0 19.797 19.801zM74 325.008c0-47.418 38.578-86 86-86s86 38.582 86 86c0 47.422-38.578 86-86 86s-86-38.578-86-86zM283 438a209.6 209.6 0 0 1-80.25-16.004c37.215-16.469 63.25-53.742 63.25-96.988 0-58.45-47.55-106-106-106-33.98 0-64.273 16.078-83.684 41.015A210.705 210.705 0 0 1 74 229c0-115.242 93.758-209 209-209 38.805 0 75.168 10.645 106.344 29.145-6.633.82-13.188 2.328-19.266 3.734-3.074.71-5.98 1.387-8.582 1.887-.496.097-.98.226-1.457.394-1.066.383-2.215.75-3.394 1.13-8.563 2.75-24.504 7.874-24.61 24.933-.066 11.312 8.914 18.035 15.473 22.941 3.32 2.488 7.078 5.3 8.207 7.574.375 1.242.996 5.114 1.45 7.965 2.948 18.43 6.062 32.899 16.858 37.535a15.48 15.48 0 0 0 6.098 1.246c2.945 0 6.52-.832 10.406-3.496 4.664-3.199 7.618-8.43 10.47-13.488 1.737-3.082 3.901-6.914 5.558-8.281 1.64-1.356 3.691-2.617 5.863-3.95 4.348-2.675 9.273-5.706 13.25-10.808 5.656-7.262 9.98-19.781 10.418-31.59C470.758 124.195 492 174.161 492 229c0 115.242-93.758 209-209 209zm0 0"></path><path d="M368.64 281.758c-3.652-1.91-7.425-3.887-9.171-5.711-8.696-9.078-28.137-23.906-45.864-21.86-3.644.418-7.003 1.512-10.027 3.227l-16.7-21.18c-.76-.968-1.577-1.882-2.366-2.77-.457-.515-1.067-1.194-1.61-1.847.028-.004.051-.012.078-.015 2.11-.372 4.5-.797 6.997-1.641 11.921-4.047 20.257-14.297 27.617-23.344 1.86-2.289 3.62-4.449 5.281-6.304 1.145-1.282 2.426-2.622 3.781-4.043 8.864-9.282 22.254-23.31 13.867-41.856-3.238-7.168-11.742-17.469-21.925-21.355.75.168 1.52.3 2.308.39 8.801 1.004 15.895-1.93 19.473-8.039 3.559-6.086 2.66-13.656-2.469-20.77-4.043-5.6-10.308-8.94-16.37-12.171-7.337-3.906-10.294-5.973-10.9-7.856 1.579-1.668 4.712-4.351 6.923-6.25 9.324-7.996 17.378-14.902 15.773-24.14-.8-4.582-4.012-8.282-8.828-10.16-18.215-7.407-32.27-1.31-45.86 4.585-1.238.536-2.484 1.079-3.753 1.618-5.04 2.136-10.301 4.242-15.395 6.277-10.543 4.219-21.445 8.578-31.832 13.793-11.09 5.57-17.875 12.367-22.684 22.727-1.156 2.496-1.902 4.515-2.445 5.992-.187.511-.41 1.11-.578 1.523-.266.149-.711.375-1.41.676-6.512 2.816-15.29.816-24.582-1.3-5.828-1.329-11.856-2.7-17.848-2.966-12.988-.578-24.355 9.008-28.312 23.828-4.114 15.41 1.293 30.461 13.152 36.602 7.465 3.867 24.184.902 24.344.863 3.61-.832 6.015-3.058 7.605-4.535l.457-.418c1.371.133 4.188 1.055 9.895 4.555 7.937 4.87 17.66 16.254 20.394 23.887.535 1.488.477 4.593.422 7.335-.058 3.11-.125 6.637.5 10.114 2.313 12.863 8.512 17.246 13.98 21.11 1.5 1.058 3.051 2.155 4.657 3.519 3.648 3.097 6.625 8.02 9.773 13.226 3.992 6.594 8.512 14.063 15.555 19.41 9.293 7.051 20.719 11.79 31.77 16.371 2.69 1.118 5.292 2.2 7.796 3.286a267.17 267.17 0 0 0-2.257 7.425c-.274 1.063-.602 1.965-.985 3.008-1.203 3.27-2.695 7.336-1.62 14.133 1.226 7.754 7.382 17.281 10.464 21.238 1.691 2.168 3.781 3.961 5.805 5.7 1.058.91 2.8 2.402 3.363 3.117 2.402 5.406-1.317 21.5-3.324 30.187-1.035 4.477-2.012 8.7-2.524 12.16-.34 2.301-.758 4.621-1.203 7.079-1.734 9.59-3.523 19.503-.707 29.261a15.98 15.98 0 0 0 15.402 11.594 16.074 16.074 0 0 0 15.898-13.262v-.004c1.056-5.84 2.731-10.586 5.27-14.933 7.88-13.492 20.329-31.727 31.63-42.442 11.39-10.797 19.437-23.715 23.269-37.355 2.293-8.164.375-15.668-5.547-21.711-4.102-4.18-9.34-6.926-14.402-9.578zm-53.437-149.73a20.372 20.372 0 0 0-1.605-.301c-6.91-1.036-13.293 1.332-17.98 6.656-2.65 3.015-3.97 6.336-4.93 8.758-.153.382-.333.832-.5 1.238-.254-.117-.583-.356-.989-.863-1.511-1.871-2.312-5.282-1.828-7.766.906-4.64 4.55-9.746 8.86-12.41 1.136-.7 3.132-1.723 5.14-1.723.465 0 .934.055 1.387.184 1.219.336 3.133 1.433 4.984 2.496 2.168 1.242 4.66 2.672 7.461 3.73zm-35.71 79.882c-3.555.63-7.977 1.41-11.723 4.293-3.547 2.73-7.418 7.98-5.73 17.512.675 3.82 2.577 6.976 4.589 9.574a52.681 52.681 0 0 1-3.996-2.738c-4-3.035-7.172-8.278-10.531-13.828-3.844-6.352-7.817-12.914-13.942-18.118-2.285-1.94-4.379-3.421-6.062-4.609-4.313-3.047-4.977-3.516-5.836-8.316-.278-1.532-.235-3.793-.188-6.196.082-4.46.18-9.52-1.59-14.46-4.757-13.278-18.367-27.81-28.77-34.188-4.48-2.746-12.253-7.512-20.8-7.512-1.45 0-2.926.137-4.41.446-4.402.914-7.34 3.593-9.117 5.242-2.758.32-7.64.527-9.848.27-3.254-2.337-3.71-8.438-2.41-13.305.918-3.438 3.644-9.188 8.117-9.004 4.184.183 9.09 1.3 14.277 2.48 11.461 2.613 24.446 5.57 36.961.16 8.606-3.718 10.743-8.004 12.825-13.648.492-1.34 1-2.727 1.816-4.48 2.934-6.32 6.348-9.672 13.52-13.274 9.625-4.832 20.125-9.031 30.28-13.094 5.188-2.074 10.552-4.219 15.786-6.441 1.316-.559 2.613-1.121 3.894-1.676 8.665-3.758 14.797-6.246 20.84-6.328-1.039.914-2.047 1.777-2.902 2.512-7.438 6.379-12.809 10.984-13.766 17.226-1.957 12.797 5.782 20.313 13.793 25.414-6.226-.781-12.797.77-18.847 4.504-9.11 5.629-15.996 15.438-17.98 25.598-1.606 8.238.702 17.719 5.89 24.148 4.265 5.29 10.176 8.278 16.637 8.41 13.375.274 17.32-9.703 19.011-13.964.418-1.06.996-2.516 1.356-2.922.031-.036.058-.067.086-.09 2.543.289 9.164 5.804 11.578 11.148 2.402 5.313-.563 9.809-10.11 19.809-1.406 1.472-2.863 2.996-4.218 4.515-1.977 2.208-3.88 4.547-5.895 7.024-5.652 6.95-12.062 14.828-18.527 17.02-1.055.355-2.516.613-4.059.886zm89.835 95.727c-2.855 10.168-9 19.937-17.77 28.254-14.32 13.574-27.609 34.336-33.331 43.824.207-1.215.41-2.445.59-3.684.394-2.66 1.28-6.508 2.222-10.578 3.48-15.047 7.422-32.101 1.688-43.719-1.915-3.886-5.247-6.746-8.188-9.27-1.094-.94-2.594-2.226-3.055-2.816-3.093-3.964-6.152-9.949-6.484-12.066-.262-1.656-.18-1.89.637-4.11.48-1.296 1.074-2.917 1.597-4.984.364-1.41 2.672-8.691 3.5-10.93 1.79-2.757 3.606-3.324 5.16-3.503 7.778-.895 21.172 7.52 29.133 15.824 4.012 4.187 9.258 6.937 14.332 9.598 3.692 1.933 7.508 3.933 9.399 5.859.84.855.933 1.016.57 2.3zM160 279.007l.219.005h.097c5.477 0 9.946-4.418 9.996-9.907.051-5.523-4.382-10.042-9.906-10.093l-.406-.004c-5.523 0-10 4.48-10 10 0 5.523 4.477 10 10 10zm0 0"></path><path d="M200.383 272.8a9.997 9.997 0 0 0-14.031 1.782c-3.383 4.367-2.582 10.648 1.785 14.031C199.488 297.406 206 310.672 206 325.008c0 25.363-20.637 46-46 46s-46-20.637-46-46a46.08 46.08 0 0 1 15.281-34.238c4.11-3.692 4.45-10.012.762-14.122-3.691-4.113-10.016-4.449-14.121-.761C101.988 288.395 94 306.297 94 325.007c0 36.395 29.605 66 66 66s66-29.605 66-66c0-20.57-9.34-39.597-25.617-52.206zm254.87-17.097c-5.398-1.148-10.714 2.29-11.862 7.692-5.946 27.851-19.2 53.835-38.332 75.14-3.692 4.11-3.352 10.434.757 14.121a9.966 9.966 0 0 0 6.68 2.563 9.97 9.97 0 0 0 7.441-3.32c21.47-23.903 36.34-53.063 43.012-84.329 1.153-5.402-2.293-10.715-7.695-11.867zM457 219c-5.523 0-10 4.477-10 10v.473c-.016 5.523 4.45 10.011 9.973 10.027H457c5.512 0 9.984-4.457 10-9.969V229c0-5.523-4.477-10-10-10zm0 0"></path></svg>